<svg width="32" height="45" viewBox="0 0 32 45" fill="none" xmlns="http://www.w3.org/2000/svg">
<g id="Standard Collection 9">
<g id="Clip path group">
<mask id="mask0_11_366" style="mask-type:luminance" maskUnits="userSpaceOnUse" x="0" y="0" width="32" height="45">
<g id="clip0">
<path id="Vector" d="M32 0.120789H0V44.8792H32V0.120789Z" fill="white"/>
</g>
</mask>
<g mask="url(#mask0_11_366)">
<g id="Group">
<path id="Vector_2" d="M27.0617 3.75372H24.8826C24.097 3.75372 23.4603 4.39051 23.4603 5.17603V13.0967C23.4603 13.8822 24.097 14.519 24.8826 14.519H27.0617C27.8473 14.519 28.484 13.8822 28.484 13.0967V5.17603C28.484 4.39051 27.8473 3.75372 27.0617 3.75372Z" fill="#679938"/>
<path id="Vector_3" d="M18.9137 44.1598V36.6562H28.1505L20.1389 44.668C20.0385 44.7685 19.9106 44.8368 19.7713 44.8645C19.632 44.8921 19.4876 44.878 19.3564 44.8235C19.2253 44.7691 19.1132 44.6769 19.0343 44.5588C18.9555 44.4408 18.9136 44.3019 18.9137 44.1598Z" fill="#679938"/>
<path id="Vector_4" d="M28.6454 36.19H18.9137V37.0894H27.6992L28.6454 36.19Z" fill="#4B7029"/>
<path id="Vector_5" d="M30.646 13.9732L17.3533 0.679197C16.9938 0.321481 16.5072 0.120667 16.0001 0.120667C15.493 0.120667 15.0064 0.321481 14.6469 0.679197L1.3544 13.9732C0.543252 14.8753 0.0652992 16.0279 0 17.2394V19.581C7.26219 24.9841 16.0761 27.8954 25.1277 27.8808C27.4297 27.8813 29.7279 27.6942 31.9996 27.3214V17.2394C31.9335 16.0283 31.4561 14.876 30.646 13.9732Z" fill="#679938"/>
<path id="Vector_6" d="M25.1281 30.034C16.0765 30.0483 7.26266 27.137 0.000427246 21.7341V34.3833C0.00206989 34.8904 0.204216 35.3762 0.56274 35.7346C0.921263 36.0933 1.40705 36.2953 1.91408 36.297H30.0866C30.5935 36.2953 31.0792 36.093 31.4379 35.7346C31.7963 35.376 31.9984 34.8902 32 34.3833V29.4745C29.7283 29.8473 27.4301 30.0344 25.1281 30.034Z" fill="#679938"/>
</g>
</g>
</g>
</g>
</svg>
